<?xml version='1.0' encoding='utf-8'?>
<svg xmlns:xlink="http://www.w3.org/1999/xlink" xmlns="http://www.w3.org/2000/svg" width="210mm" height="297mm" version="1.1" viewBox="0 0 210 297"> <defs> <linearGradient id="a"> <stop stop-color="#fefdfd" offset="0"/> <stop stop-color="#898e93" offset="1"/> </linearGradient> <filter id="ai" x="-.022653" y="-.024574" width="1.0453" height="1.0491" color-interpolation-filters="sRGB"> <feGaussianBlur stdDeviation="0.22026659"/> </filter> <filter id="ah" x="-.028047" y="-.047358" width="1.0561" height="1.0947" color-interpolation-filters="sRGB"> <feGaussianBlur stdDeviation="0.12918382"/> </filter> <filter id="ag" x="-.046883" y="-.13079" width="1.0938" height="1.2616" color-interpolation-filters="sRGB"> <feGaussianBlur stdDeviation="0.27321649"/> </filter> <radialGradient id="c" cx="-599.24" cy="-394.15" r="2.4549" gradientTransform="matrix(1.2117 .038491 -.74499 2.0675 -45.912 642.11)" gradientUnits="userSpaceOnUse" xlink:href="#a"/> <linearGradient id="g" x1="-598.61" x2="-593.93" y1="-396.48" y2="-396.48" gradientUnits="userSpaceOnUse" xlink:href="#a"/> <filter id="af" x="-.14779" y="-.037317" width="1.2956" height="1.0746" color-interpolation-filters="sRGB"> <feGaussianBlur stdDeviation="0.13917394"/> </filter> <filter id="ae" x="-.45751" y="-.10568" width="1.915" height="1.2114" color-interpolation-filters="sRGB"> <feGaussianBlur stdDeviation="0.43832322"/> </filter> <filter id="ad" x="-.21062" y="-.053873" width="1.4212" height="1.1077" color-interpolation-filters="sRGB"> <feGaussianBlur stdDeviation="0.38603571"/> </filter> <filter id="ac" x="-.21291" y="-.13572" width="1.4258" height="1.2714" color-interpolation-filters="sRGB"> <feGaussianBlur stdDeviation="0.20245806"/> </filter> <filter id="ab" x="-.099549" y="-.20338" width="1.1991" height="1.4068" color-interpolation-filters="sRGB"> <feGaussianBlur stdDeviation="0.35787085"/> </filter> <filter id="aa" x="-.52674" y="-.082952" width="2.0535" height="1.1659" color-interpolation-filters="sRGB"> <feGaussianBlur stdDeviation="0.20731347"/> </filter> <filter id="z" x="-.27901" y="-.31204" width="1.558" height="1.6241" color-interpolation-filters="sRGB"> <feGaussianBlur stdDeviation="0.183199"/> </filter> <filter id="y" x="-.081339" y="-.21615" width="1.1627" height="1.4323" color-interpolation-filters="sRGB"> <feGaussianBlur stdDeviation="0.28697157"/> </filter> <filter id="x" x="-.10312" y="-.1309" width="1.2062" height="1.2618" color-interpolation-filters="sRGB"> <feGaussianBlur stdDeviation="0.12010781"/> </filter> <filter id="w" x="-.098247" y="-.025518" width="1.1965" height="1.051" color-interpolation-filters="sRGB"> <feGaussianBlur stdDeviation="0.26333148"/> </filter> <filter id="v" x="-.085933" y="-.31976" width="1.1719" height="1.6395" color-interpolation-filters="sRGB"> <feGaussianBlur stdDeviation="0.22154946"/> </filter> <linearGradient id="f" x1="-568.61" x2="-581.46" y1="-414.64" y2="-409.76" gradientUnits="userSpaceOnUse"> <stop stop-color="#c9aa12" offset="0"/> <stop stop-color="#9c7c28" offset="1"/> </linearGradient> <filter id="u" x="-.050722" y="-.15157" width="1.1014" height="1.3031" color-interpolation-filters="sRGB"> <feGaussianBlur stdDeviation="0.31383011"/> </filter> <filter id="t" x="-.12595" y="-.077478" width="1.2519" height="1.155" color-interpolation-filters="sRGB"> <feGaussianBlur stdDeviation="0.20959874"/> </filter> <radialGradient id="b" cx="-578.96" cy="-399.52" r="4.9265" gradientTransform="matrix(1.4768 1.216 -1.4216 .68635 -169.55 776.73)" gradientUnits="userSpaceOnUse"> <stop stop-color="#fefdfd" offset="0"/> <stop stop-color="#b7b9bc" offset=".49725"/> <stop stop-color="#5f6467" offset="1"/> </radialGradient> <filter id="s" x="-.084954" y="-.037723" width="1.1699" height="1.0754" color-interpolation-filters="sRGB"> <feGaussianBlur stdDeviation="0.22245032"/> </filter> <filter id="r" x="-.087203" y="-.078537" width="1.1744" height="1.1571" color-interpolation-filters="sRGB"> <feGaussianBlur stdDeviation="0.15424926"/> </filter> <filter id="q" x="-.14316" y="-.083475" width="1.2863" height="1.167" color-interpolation-filters="sRGB"> <feGaussianBlur stdDeviation="0.28448848"/> </filter> <linearGradient id="e" x1="-559.66" x2="-548" y1="-396" y2="-438.37" gradientTransform="matrix(1 0 -.26795 1 15.101 198.82)" gradientUnits="userSpaceOnUse"> <stop stop-color="#f2c08e" offset="0"/> <stop stop-color="#eec68b" offset="1"/> </linearGradient> <linearGradient id="d" x1="-529.37" x2="-523.62" y1="-403.61" y2="-435.48" gradientTransform="matrix(1 0 -.26795 1 15.101 198.82)" gradientUnits="userSpaceOnUse"> <stop stop-color="#f3d292" offset="0"/> <stop stop-color="#d6ae80" offset=".61732"/> <stop stop-color="#c1a771" offset="1"/> </linearGradient> <filter id="p" x="-.01599" y="-.009411" width="1.032" height="1.0188" color-interpolation-filters="sRGB"> <feGaussianBlur stdDeviation="0.16565837"/> </filter> <filter id="o" x="-.076763" y="-.19428" width="1.1535" height="1.3886" color-interpolation-filters="sRGB"> <feGaussianBlur stdDeviation="0.20977873"/> </filter> <filter id="n" x="-.047155" y="-.13711" width="1.0943" height="1.2742" color-interpolation-filters="sRGB"> <feGaussianBlur stdDeviation="0.17940435"/> </filter> <filter id="m" x="-.04723" y="-.13649" width="1.0945" height="1.273" color-interpolation-filters="sRGB"> <feGaussianBlur stdDeviation="0.094252563"/> </filter> <filter id="l" x="-.29931" y="-.083862" width="1.5986" height="1.1677" color-interpolation-filters="sRGB"> <feGaussianBlur stdDeviation="0.116596"/> </filter> <filter id="k" x="-.30779" y="-.13739" width="1.6156" height="1.2748" color-interpolation-filters="sRGB"> <feGaussianBlur stdDeviation="0.10777734"/> </filter> <filter id="j" x="-.037806" y="-.12847" width="1.0756" height="1.2569" color-interpolation-filters="sRGB"> <feGaussianBlur stdDeviation="0.13234238"/> </filter> <filter id="i" x="-.21134" y="-.15289" width="1.4227" height="1.3058" color-interpolation-filters="sRGB"> <feGaussianBlur stdDeviation="0.087956897"/> </filter> <filter id="h" x="-.046709" y="-.14088" width="1.0934" height="1.2818" color-interpolation-filters="sRGB"> <feGaussianBlur stdDeviation="0.26346761"/> </filter> </defs> <g transform="matrix(1.8915 0 0 1.8915 935.17 559.63)"> <path d="m-459.9-192.76s-10.772 0.8032-11.576 0.66146-1.1288-0.5564-1.2731-1.6129 0.0212-7.9546-1.1128-9.2539-4.2286-1.4646-4.5121-1.7245c-0.28348-0.25986-0.21263-1.2284-0.16537-2.197 0.0473-0.96856 0-4.1814 0.54334-5.7641 0.54333-1.5828 2.008-2.5986 2.8112-3.0474 0.8032-0.44885 1.9371-1.0158 1.9371-1.0158s8.7643-2.9766 10.111-3.0474c1.3466-0.0709 8.9533 1.6064 11.221 1.4883s4.0396-0.0236 4.7247 0.0473c0.68507 0.0709 2.7403 0.42522 3.7089 0.8032 0.96855 0.37797 1.762-0.45582 2.0552 0.26584 0.2931 0.72166 0.20044 1.0357-0.93544 2.8063-1.1359 1.7707-0.90204 2.1382-2.5391 2.94-1.637 0.80181 0.60138 1.1025-2.9065 1.0691-3.5079-0.0334-8.586 0.56795-9.889 4.4768-1.3029 3.9088-2.2035 13.105-2.2035 13.105z" fill="#f9d52e" stroke="#000" stroke-linejoin="miter" stroke-miterlimit="4" stroke-width=".47582"/> <path d="m-432.84-198.52s18.252-5.7244 26.065-6.7695c7.8136-1.0451 20.506-0.11284 20.506-0.11284l2.0586 0.58914-30.556 7.5292z" fill="#5d4b39"/> <path d="m-463.15-219.9c-0.37766 0.0199-1.1625 0.22204-2.1758 0.51171-1.0133 0.28968-2.2375 0.6682-3.418 1.0449-2.3608 0.75346-4.5527 1.498-4.5527 1.498l-8e-3 2e-3 -8e-3 4e-3s-1.1353 0.56796-1.9434 1.0195c-0.81764 0.45691-2.3097 1.4838-2.8711 3.1191-0.28097 0.8185-0.40259 2.0218-0.46484 3.1484-0.0623 1.1266-0.0627 2.1773-0.0859 2.6524-0.0236 0.48321-0.0531 0.96951-0.041 1.375 0.0121 0.40548 0.0439 0.73682 0.25 0.92578 0.077 0.0706 0.16122 0.0933 0.28125 0.12695 0.12002 0.0336 0.27053 0.0652 0.44531 0.10156 0.34955 0.0727 0.79654 0.15837 1.2676 0.27539 0.94207 0.23406 1.9782 0.60412 2.5078 1.2109 0.24433 0.27993 0.45487 0.94388 0.59961 1.7812s0.23587 1.8506 0.29492 2.8574c0.059 1.0068 0.0869 2.0068 0.10938 2.8223 0.0225 0.8155 0.037 1.438 0.0762 1.7246 0.0736 0.53918 0.19521 0.93037 0.41797 1.2129s0.54256 0.43754 0.96289 0.51172c0.13584 0.024 0.38236 0.0221 0.75586 0.0137 0.3735-8e-3 0.85978-0.027 1.4219-0.0547 1.1242-0.0554 2.5462-0.14281 3.9434-0.23437 2.7942-0.18314 5.4883-0.38477 5.4883-0.38477l-0.12695-0.14258 0.24609 0.0371 2e-3 -0.0137 0.0332-0.1582-0.0137 2e-3c0.0134-0.13534 0.21808-2.2248 0.59375-4.9238 0.38759-2.7847 0.93947-6.0625 1.584-7.9961 0.63581-1.9074 2.1877-3.006 4.0352-3.6328 1.8474-0.62681 3.9827-0.77053 5.7285-0.75391 0.87874 8e-3 1.3964-3e-3 1.7188-0.041 0.16121-0.0188 0.2739-0.043 0.36328-0.082 0.0894-0.039 0.15754-0.10244 0.19141-0.17187 0.0677-0.13886 0.0421-0.22649 0.0996-0.33399 0.0575-0.10749 0.19617-0.25934 0.5918-0.45312 0.82792-0.40551 1.2076-0.71964 1.5078-1.1504 0.30022-0.43075 0.52051-0.95758 1.084-1.8359 0.56898-0.88695 0.88238-1.4118 1.0195-1.8281 0.13716-0.41627 0.0786-0.72807-0.0723-1.0996-0.0845-0.20793-0.23409-0.33545-0.40234-0.37305-0.16826-0.0376-0.33844-5e-3 -0.51954 0.0312-0.36218 0.0722-0.76484 0.17451-1.207 2e-3 -1.0015-0.39084-3.0411-0.73779-3.7441-0.81055-0.69634-0.0721-2.469-0.16732-4.7441-0.0488-1.0938 0.057-3.5752-0.32907-5.9277-0.72461-1.1763-0.19777-2.3238-0.39724-3.2637-0.54297-0.93987-0.14573-1.6607-0.24021-2.0312-0.2207zm0.0137 0.26367c0.30275-0.0159 1.0406 0.0736 1.9766 0.21875 0.93599 0.14513 2.0826 0.34504 3.2598 0.54297 2.3544 0.39585 4.8122 0.78771 5.9863 0.72656 2.2606-0.11774 4.0293-0.0229 4.7031 0.0469 0.66713 0.0691 2.7382 0.42981 3.6738 0.79493 0.52636 0.20541 1.0055 0.0815 1.3555 0.0117 0.17498-0.0349 0.31888-0.054 0.41211-0.0332 0.0932 0.0208 0.15273 0.0619 0.21484 0.21484 0.1422 0.35013 0.18432 0.55417 0.0644 0.91797-0.11987 0.36381-0.42333 0.88387-0.99023 1.7676-0.57243 0.89231-0.80205 1.432-1.0781 1.8281s-0.59713 0.66815-1.4062 1.0644c-0.42288 0.20713-0.61814 0.3911-0.71094 0.56445s-0.0858 0.3114-0.10156 0.34375c-8e-3 0.0162-0.0121 0.0238-0.0605 0.0449s-0.13929 0.0453-0.28711 0.0625c-0.29566 0.0345-0.81228 0.0474-1.6875 0.0391-1.7621-0.0168-3.9201 0.12485-5.8145 0.76758-1.8944 0.64272-3.534 1.7974-4.2012 3.7988-0.65841 1.9753-1.2073 5.2524-1.5957 8.043-0.37991 2.7295-0.59195 4.8829-0.60156 4.9805-0.10423 8e-3 -2.6399 0.19562-5.377 0.375-1.3964 0.0915-2.8179 0.17907-3.9394 0.23438-0.56076 0.0277-1.0467 0.0483-1.416 0.0566-0.36935 8e-3 -0.63622-2.6e-4 -0.70117-0.0117-0.38287-0.0676-0.62582-0.18969-0.80273-0.41406-0.17692-0.22438-0.29068-0.5686-0.36133-1.0859-0.033-0.24165-0.0517-0.87772-0.0742-1.6934s-0.052-1.8199-0.11133-2.832c-0.0594-1.0122-0.14918-2.0323-0.29687-2.8867s-0.33942-1.5404-0.66211-1.9102c-0.60436-0.69247-1.683-1.0546-2.6426-1.293-0.47981-0.1192-0.93148-0.20538-1.2773-0.27734-0.17293-0.036-0.31984-0.0694-0.42774-0.0996s-0.18196-0.0701-0.17578-0.0644c-0.0773-0.0709-0.15254-0.35433-0.16406-0.74024-0.0115-0.3859 0.0173-0.86816 0.041-1.3535 0.0241-0.49355 0.0242-1.5328 0.0859-2.6504 0.0618-1.1176 0.18881-2.3139 0.45117-3.0781 0.52527-1.5302 1.9612-2.5338 2.75-2.9746 0.79673-0.44523 1.9232-1.0075 1.9277-1.0098 1e-5 -1e-5 4e-3 -2e-3 4e-3 -2e-3 0.0152-5e-3 2.1835-0.74031 4.5332-1.4902 1.179-0.37627 2.3995-0.7546 3.4082-1.043s1.8216-0.48639 2.1172-0.50195z" clip-rule="nonzero" color="#000000" color-rendering="auto" dominant-baseline="auto" enable-background="accumulate" fill-rule="nonzero" image-rendering="auto" shape-rendering="auto" solid-color="#000000" style="font-feature-settings:normal;font-variant-alternates:normal;font-variant-caps:normal;font-variant-ligatures:normal;font-variant-numeric:normal;font-variant-position:normal;isolation:auto;mix-blend-mode:normal;shape-padding:0;text-decoration-color:#000000;text-decoration-line:none;text-decoration-style:solid;text-indent:0;text-orientation:mixed;text-transform:none;white-space:normal"/> <path transform="matrix(1 0 -.26795 1 15.101 198.82)" d="m-581.64-413.17s-3.3261 4.5436-6.1759 5.3788c-2.8498 0.83521-8.4072-1.2027-10.042-2.94-1.6348-1.7372-3.0733-3.2406-3.4921-3.3075-0.41883-0.0668-2.0629 1.4032-1.7954 3.274 0.26746 1.8709 1.1973 6.214 1.405 6.6149 0.20764 0.40091 2.3482 0.53454 3.8188 1.0357 1.4706 0.50113 2.6842 2.0379 3.5488 4.1427 0.86467 2.1048 1.2031 5.1828 2.0459 6.0492 0.84281 0.86638 6.2985 0.0312 8.2028 0.0312s2.2956-0.53454 2.0718-1.3698c-0.2238-0.83522-1.6408-6.182-1.7244-9.0538-0.0834-2.8718 0.35035-4.6772 1.1138-6.8154 0.76344-2.1382 1.0229-3.0402 1.0229-3.0402z" fill="#edbd2d" filter="url(#ai)"/> <path transform="matrix(1 0 -.26795 1 15.101 198.82)" d="m-581.46-409.76s1.07-2.7395 5.3068-4.009 7.5417-0.86942 7.5417-0.86942l0.16348-0.0907s0.0804 1.9623-0.0598 2.0626c-0.14017 0.10023-1.4036 1.3698-1.4656 1.637s-0.17362 0.10023-1.3143-0.16704-2.6318 0.65147-3.0025 0.70158c-0.37078 0.0501-3.3955-0.0167-4.9218 0.33409s-2.2479 0.4009-2.2479 0.4009z" fill="url(#f)" filter="url(#u)"/> <path transform="matrix(1 0 -.26795 1 15.101 198.82)" d="m-600.53-414.23 0.97229-0.77957s2.0184 3.2128 5.2364 4.8192 5.9313 1.4174 5.9313 1.4174-3.0017 1.2284-6.8902-1.2048c-3.8884-2.4332-5.2499-4.2522-5.2499-4.2522z" fill="#edbd2d" filter="url(#ah)"/> <path transform="matrix(1 0 -.26795 1 15.101 198.82)" d="m-596.37-415.58 13.457 0.49609s-1.4888 3.26-4.7964 4.2286c-3.3076 0.96856-6.0359-0.66146-7.61-2.4805-1.5741-1.819-1.0502-2.2442-1.0502-2.2442z" fill="#edbd2d" filter="url(#ag)"/> <path d="m-443.54-251.15c-0.0428-3e-3 -0.0876-1e-3 -0.13332 6e-3 -0.36616 0.0591-3.3192 1.6065-3.3192 1.8309 0 0.22442-0.0236 1.0271 0.24804 1.0862 0.27165 0.0591 1.0865 0.30732 1.2991 0.69711 0.2126 0.3898 1.1431 10.296 1.1431 10.296s-9.8555-2.7146-11.877-3.3326c-2.0212-0.6181-3.9843-0.90193-4.6023-0.5762-0.61804 0.32573-5.1784 3.3489-7.5504 4.8106-2.372 1.4616-1.9421 2.3739-2.1776 4.0044-0.23561 1.6305-2.7164 14.939-2.6329 15.306 0.0835 0.3675 2.2466 5.98 7.7256 6.6482 5.479 0.66819 10.19-5.98 10.19-5.98s0.6014-0.43414 0.86868-0.63459c0.26726-0.20045 2.2219-1.2533 3.2742-1.2366 1.0524 0.0167 2.7564-0.19999 2.7564-0.19999s1.5033-10.156 1.6536-10.641c0.15033-0.48443 0.56806-1.0858 1.7374-1.587 1.1693-0.50113 1.119-0.35095 1.3028 0.0165 0.18378 0.3675 1.8206 15.552 1.8206 15.552s-0.70133-0.0503-1.1022 0.11679c-0.4009 0.16704-1.1024 0.80195-1.0356 1.1694 0.0668 0.36749-0.0667 0.63461-0.31728 0.73483-0.25056 0.10023-1.2866-0.0504-1.5038 0.23358-0.21712 0.28397-0.0164 1.6542-0.0164 1.6542s-0.36725-0.0169-2.3885-0.23409c-2.0212-0.21715-6.6486-0.10017-8.2522 1.5369-1.6036 1.637-3.8419 6.5817-3.608 11.86 0.23386 5.2786 1.2026 8.3521 3.4075 10.19 2.205 1.8375 4.2428 1.403 6.6482 1.2025 2.4054-0.20045 4.5105-0.76818 6.4482-2.4386 1.9377-1.6704 2.2717-4.5439 2.2717-4.5439h1.0025l0.26718 1.1694s2.3386-0.20037 3.8086-0.26716c1.47-0.0668 2.6724-0.73528 3.374-0.4346s1.103 1.4701 2.4727 2.3053c1.3698 0.83522 3.0399 1.0356 4.1424 1.0356s3.441-0.033 5.7128-1.0687 3.4747-4.9448 3.9424-5.3123c0.46773-0.3675 1.1027-0.0335 2.0381-0.10025 0.93544-0.0668 12.562-2.7393 19.344-4.3429s6.8154-3.1736 6.6818-3.3073c-0.13362-0.13363-1.2363-0.13361-2.0381 0.10025-0.80182 0.23386-3.2405 0.73482-5.3118 1.3028-2.0713 0.56794-17.974 3.6747-17.974 3.6747l-9.9586 1.294s10.891-2.9532 12.591-3.5202c1.7009-0.56697 3.7087-1.9606 3.3543-2.2913-0.35436-0.33076-1.5105-0.22629-2.1787-0.0259-0.66818 0.20046-22.851 4.8777-22.851 4.8777l-4.4101-36.415s-0.0333 0.033-0.26715-0.36793c-0.23386-0.40092-0.73485-0.46767-0.73485-0.46767l-1.2361-9.7886s4.9778 1.5369 5.7128 1.8376c0.73499 0.30068 0.93541 0.5008 1.1359 1.3694 0.20045 0.86862 0.33383 5.3454 0.33383 5.3454l4.8778-1.8371s-0.35555-4.8416-0.36743-5.0069c-0.0119-0.16537-0.21249-0.37783-0.0589-0.72037 0.15356-0.34254 1e-4 -0.92102-0.31883-1.0273-0.3189-0.10631-0.87415 0.0942-1.2521 0.53124-0.37795 0.43703-0.7916 0.30739-0.86246-0.11782-0.071-0.42522 0.14166-0.94538-0.0119-1.0635-0.15354-0.11813-0.82656-0.56673-1.3581-0.1297-0.53153 0.43704-1.5591 1.2991-1.5591 1.2991l-6.5557-2.126s-0.33081-2.8229-0.59065-2.882c-0.25985-0.0591-0.94499 0.38972-1.0868 0.56689-0.14177 0.17718-0.95653 0.50768-1.2873 0.37775-0.3307-0.12993-0.23638-1.0394-0.25993-1.4056-0.0206-0.3204-0.24013-0.58629-0.54001-0.60824zm-17.398 13.611c0.0562 2e-3 0.10097 0.0193 0.1323 0.0548 0.25058 0.28397 0.71805 1.1358 0.43407 1.6035-0.28398 0.46772-0.93509 0.65134-1.3193 0.83509-0.3842 0.18374-0.43461 0.0336-0.43461 0.0336-0.0835-0.0167-1.3364-0.18382-1.587-0.25063-0.25056-0.0668-0.10022-0.38395 0.71829-1.002 0.71621-0.5408 1.6629-1.2867 2.0562-1.2743zm7.4869 0.016c0.86913 0.01 1.8705 0.5324 1.6826 0.67334-0.20045 0.15034-1.8043 0.83511-2.9068 1.5534s-1.5033 0.90245-1.6536 0.93586c-0.15034 0.0334-0.45114-0.73536-0.45114-0.73536s-0.36751-0.36733 0-0.68471c0.36748-0.31738 2.2554-1.6705 3.1574-1.7374 0.0564-4e-3 0.11364-6e-3 0.17158-5e-3zm6.1288 1.5844c0.51454-0.0354 1.0115 0.32106 1.0992 0.40876 0.10022 0.10022-0.13343 0.2505-1.2526 1.0857s-3.9754 2.038-4.3429 2.205c-0.36748 0.16705-1.3364-0.63467-0.91882-0.93535 0.18375-0.11693 4.6104-2.5391 5.195-2.7228 0.0731-0.023 0.14663-0.0363 0.22013-0.0413zm2.9528 1.6542c0.48861 9e-3 0.53536 0.43735 0.53536 0.57516-3e-5 0.18375 0.0502 0.618-1.0356 1.0857-1.0858 0.46773-2.6225 1.153-2.8898 1.3534-0.26726 0.20045-1.1364-0.7183-1.1364-0.7183 0.13362-0.0835 2.7732-1.6706 3.8757-2.1384 0.27562-0.11693 0.48774-0.16049 0.65061-0.15762zm-23.239 2.6092c0.30901-4e-3 0.7973 0.0875 1.5741 0.22117 1.5535 0.26727 5.4289 0.88543 6.0637 1.0191 0.63477 0.13364 0.73525 0.43423 0.90229 0.98547 0.16705 0.55124 0.46767 1.5702 0.46767 1.9043-2e-5 0.33409-0.25066-0.0499-1.0191-0.0165-0.7684 0.0334-1.4868-0.0166-1.9379 0.25063-0.45101 0.26726-0.56779 0.50123-0.68471 1.6872-0.11695 1.186-0.41757 3.3573-0.46768 3.5243-0.0497 0.16704-0.0671 0.20049-1.1028 0.15038-1.0356-0.0501-4.7942-0.58481-5.3454-0.60152-0.55126-0.0167-0.41754-0.46767-0.41754-0.46767s1.3533-7.8007 1.4702-8.3018c0.0585-0.25056 0.18812-0.35084 0.49715-0.35501zm12.195 2.1709s4.7128 0.87415 5.2679 1.0041 0.54364 0.42507 0.46093 1.4645c-0.0827 1.0394-1.0276 5.9888-1.0749 6.4022-0.0473 0.41341-0.94498-2.6e-4 -1.0868-1.0397-0.14174-1.0394-0.49609-3.3662-0.9095-3.945-0.41342-0.57878-1.2756-0.74392-1.7244-0.87385s-0.90964-2.2092-0.93327-2.5518c-0.0235-0.34254 0-0.46044 0-0.46044z"/> <path d="m-442.47-232.31s26.6-14.788 27.545-15.308c0.94493-0.51972 4.2522 1.1812 5.1027 1.6536 0.85045 0.47248 16.032 7.1041 16.467 7.221 0.43431 0.11694 0.7851 0.58466 1.1359 1.8542 0.35081 1.2695 8.0052 32.077 8.0052 32.077l-21.903 0.0121-32.34 7.6172z" fill="url(#e)"/> <path d="m-424.99-197.92c0.33409 0.16705 9.8556 0.80181 10.023 0.80181s30.757-7.6961 30.757-7.6961l-21.903 0.0121-32.34 7.6172z" fill="none"/> <path d="m-414.47-247.71c-0.13036 2e-3 -0.2458 0.0185-0.34468 0.0512 1.7027 9.016 5.3134 28.069 8.2186 42.977l0.4775-0.11266 21.904-0.0124s-7.6544-30.807-8.0052-32.077c-0.35078-1.2695-0.70154-1.7377-1.1358-1.8547-0.43431-0.11693-15.616-6.7483-16.467-7.2208-0.74417-0.41341-3.3696-1.7675-4.6473-1.7513z" fill="url(#d)"/> <path transform="matrix(1 0 -.26795 1 15.101 198.82)" d="m-530.68-403.65s-18.536-41.461-18.916-42.129c-0.37951-0.66817 1.2906-0.33306 1.6164 0.13466 0.32578 0.46772 2.0503 4.41 2.511 5.8799 0.46071 1.47 14.821 31.872 15.388 32.741 0.56684 0.86862 2.8578 1.9377 5.2501 2.1382 2.3923 0.20046 11.106 0.80181 10.839 0.80181-0.26728 0-16.688 0.43431-16.688 0.43431z" fill="#f7d39a" filter="url(#p)"/> <path d="m-474.64-203.26s-3.107 0.13364-3.3743 0.3675c-0.26728 0.23386-3.0402 3.675-3.2072 7.7842-0.16703 4.1093 1.6704 7.2163 2.0713 7.684 0.40093 0.46772 2.5725 0.56795 3.3743 0.50113 0.80181-0.0668 2.7729-0.16704 3.3409-0.50113 0.56796-0.33408 2.205-2.205 2.372-3.3075 0.16705-1.1025 0.33409-2.6059 0.20045-5.8799s-2.205-6.9824-4.7774-6.6483z" stroke="#000" stroke-linejoin="miter" stroke-width=".26458px"/> <path transform="matrix(1 0 -.26795 1 15.101 198.82)" d="m-598.53-400.91c0.2452 0.16704 1.8883 1.4366 2.6235 3.3075s1.8449 5.6434 1.8449 5.6434-1.3402-6.3214-2.1645-7.3689c-0.82433-1.0474-2.3039-1.582-2.3039-1.582z" fill="url(#g)" filter="url(#af)"/> <path d="m-477.26-199.83c-0.35512-0.0243-1.1617 0.0797-1.9699 1.7808-0.92374 1.9441-1.1314 4.0801-0.91879 5.4503 0.21259 1.3702 1.6302 2.9761 2.4334 2.7399 0.80323-0.23623 1.2692-2.0733 1.2692-2.0733 0.73772-1.8728 0.71483-4.0921 0.49041-5.8048-0.22439-1.7127-0.93274-2.0436-1.1808-2.079-0.031-4e-3 -0.0728-0.0105-0.12351-0.0139z" fill="url(#c)" stroke="#000" stroke-linejoin="miter" stroke-width=".26458px"/> <path d="m-457.53-203.83s-0.16703-1.4366 2.7061-2.94c2.8732-1.5034 4.7774 3.4411 5.1115 5.1449s0.10022 7.9513-2.8732 9.5549c-2.9734 1.6036-5.0218-1.2722-5.5792-4.8442-0.55742-3.572 0.63477-6.9156 0.63477-6.9156z" fill="url(#b)" stroke="#000" stroke-linejoin="miter" stroke-width=".26458px"/> <path transform="matrix(1 0 -.26795 1 15.101 198.82)" d="m-576.59-410.22s3.2921 2.0052 4.5162 3.6956 2.8903 4.6772 3.3289 6.3142 1.11 4.1427 1.11 4.1427 0.69198-0.53454 0.4276-1.7707c-0.26441-1.2361-2.0116-5.5124-2.1948-5.9468-0.18318-0.43431-2.4636-3.7084-3.077-4.3765-0.61335-0.66817-0.98564-0.93544-1.5029-1.3698-0.51727-0.43431-2.608-0.68883-2.608-0.68883z" fill="#676869" filter="url(#s)"/> <path transform="matrix(1 0 -.26795 1 15.101 198.82)" d="m-574.47-410s2.3615 2.205 2.9993 2.8397c0.63781 0.63477 0.24244 0.19712 0.9612 0.96885 0.71875 0.77174 1.7199 1.3273 1.245 0.47991s-0.38601-1.0144-0.60914-1.3485c-0.22316-0.33409-0.58235-0.80181-0.58235-0.80181s0.44087-0.10023 0.22427-0.53454-0.42905-1.1025-1.0418-1.2695c-0.61272-0.16704-3.1965-0.33409-3.1965-0.33409z" fill="#555a54" filter="url(#r)"/> <path transform="matrix(1 0 -.26795 1 15.101 198.82)" d="m-567.31-401.61s1.1863 2.8063 1.7138 4.2763c0.52752 1.47 0.18862 1.2027 0.96072 2.3386 0.77209 1.1359 0.82994 1.1025 0.91707 1.3029 0.0871 0.20046 1.3733-0.73499 1.9233-0.8018 0.55005-0.0668 1.1001-0.13364 0.80772-0.60136-0.29236-0.46772-1.4123-1.9043-1.8186-2.6727-0.40634-0.7684-0.83458 0.50112-0.69135 1.0357s-0.47556-0.90203-1.0496-2.1716c-0.57403-1.2695-1.0854-2.3052-1.3885-2.4388-0.30306-0.13363-0.96773-0.86862-1.3746-0.26727z" fill="#6e6c6c" filter="url(#q)"/> <path transform="matrix(1 0 -.26795 1 15.101 198.82)" d="m-570.68-411.47c0.0253 0.0945 2.0935 5.3854 1.9083 5.4881-0.18521 0.10271 1.5037 0.0162 1.9998 0.0162 0.49609 0 1.8011 1.0471 1.3415-0.28349-0.45965-1.3306-1.9579-5.1027-2.4278-5.6224-0.46999-0.51972-1.5275 0.11812-1.4908 0.51972s1.1554 4.4885 1.1584 4.3231c3e-3 -0.16537-1.4562-4.4648-1.765-4.5593-0.30879-0.0945-0.72135-0.0473-0.72429 0.11812z" fill="#453e45" filter="url(#t)"/> <path transform="matrix(1 0 -.26795 1 15.101 198.82)" d="m-543.35-392.59c-0.0806-0.30068-1.5229-1.8281-1.6206-2.8063s0.54286-0.46772 0.91817 0.43432c0.37534 0.90203 0.70241 2.372 0.70241 2.372z" fill="#453e45" filter="url(#l)"/> <path transform="matrix(1 0 -.26795 1 15.101 198.82)" d="m-541.33-393.79c-0.48035-1.1693-0.68561-1.4366-0.58124-1.6704 0.1044-0.23386 0.60969-0.46772 0.85139 0.43432 0.2417 0.90203-0.27015 1.2361-0.27015 1.2361z" fill="#453e45" filter="url(#k)"/> <path transform="matrix(1 0 -.26795 1 15.101 198.82)" d="m-549.7-391.99c1.2069-0.23386 3.8294-1.1693 3.8294-1.1693s-0.16353-0.73499-0.87583-0.4009-3.0992 0.90203-3.4284 1.1693c-0.32931 0.26726 0.4749 0.4009 0.4749 0.4009z" fill="#6a5e4e" filter="url(#m)"/> <path transform="matrix(1 0 -.26795 1 15.101 198.82)" d="m-546.97-394.89s-6.9281 0.70159-7.4375 1.1693c-0.50944 0.46772 0.0151 1.3029 0.44937 1.3029 0.43431 0 0.70813-0.10023 0.61619-0.56795-0.0919-0.46773-0.35263-0.56795-0.0364-0.63477 0.31619-0.0668 6.4084-1.2695 6.4084-1.2695z" fill="#6a6868" filter="url(#j)"/> <path transform="matrix(1 0 -.26795 1 15.101 198.82)" d="m-557.51-393.19s1.0232 0.70158 0.91883 0.93544-0.51119 0.83522-0.88411 0.0668c-0.37295-0.7684-0.0347-1.0023-0.0347-1.0023z" fill="#6e6c6c" filter="url(#i)"/> <path transform="matrix(1 0 -.26795 1 15.101 198.82)" d="m-539.53-399.04s6.3582-2.205 6.9392-2.4054 0.81253-0.33409 0.81253-0.33409l0.22666-0.4009s-0.86623 0.13363-1.8882 0.43431c-1.0219 0.30068-2.1417 0.73499-2.5891 0.93544-0.44743 0.20045-3.5012 1.7707-3.5012 1.7707z" fill="#6a5e4e" filter="url(#n)"/> <path transform="matrix(1 0 -.26795 1 15.101 198.82)" d="m-517.48-400.04s3.571-1.1359 3.9696-1.2695c0.39851-0.13363 1.844-1.0357 1.7034-1.186-0.14051-0.15033-0.78216-0.30067-2.3962 0.28398-1.614 0.58465-3.2768 2.1716-3.2768 2.1716z" fill="#868077" filter="url(#o)"/> <path transform="matrix(1 0 -.26795 1 15.101 198.82)" d="m-595.13-412.08c-0.0668 0-1.758-1.3865-2.5574-2.1883-0.7995-0.80181-0.37304-1.7038-0.0106-1.2862 0.36246 0.41761 2.568 3.4745 2.568 3.4745z" fill="#fbffff" filter="url(#ac)"/> <path transform="matrix(1 0 -.26795 1 15.101 198.82)" d="m-598.89-416.78c-0.0313-0.11693-1.2377-13.347-1.4242-14.666-0.18654-1.3196-0.27966-1.8542 0.072-2.0379 0.35166-0.18374 1.1177-0.31738 1.2445 0.46773 0.12686 0.7851 0.11178 5.5291 0.23608 7.8009 0.12429 2.2718 0.64589 4.3431 1.0012 5.2953s0.44424 0.78511 0.42491 1.3364c-0.0194 0.55124-0.10047 0.68488-0.0733 1.0357 0.0272 0.35079 0.17816 0.85192-0.19915 1.0023-0.37734 0.15034-1.0732 0.23386-1.2821-0.23386z" fill="#fdfcfc" filter="url(#ad)" opacity=".661" stroke="#838383" stroke-linejoin="miter" stroke-width=".26458px"/> <path transform="matrix(1 0 -.26795 1 15.101 198.82)" d="m-598.03-420.3c0.25176 0.0668 2.8383 0.61806 4.2606 0.7517 1.4222 0.13363 3.3155 0.21715 3.4805 0.33408 0.16497 0.11693 0.33569 1.2528 0.46997 1.754s0.54388 1.2194 0.34588 1.353c-0.19806 0.13364-4.3846-0.21715-5.6419-0.23386-1.2573-0.0167-2.3284 0.10023-2.7223-0.43431-0.39379-0.53454-0.19271-3.5246-0.19271-3.5246z" fill="#5f5e5b" filter="url(#ab)"/> <path transform="matrix(1 0 -.26795 1 15.101 198.82)" d="m-597.03-418.92c0.85847-0.10022 1.0088-0.10022 2.8743 0.0668 1.8656 0.16704 3.315 0.65147 3.1808 1.0858-0.13419 0.43431-1.0395 0.48443-2.327 0.41761-1.2874-0.0668-2.6974-0.21716-3.3134-0.33409-0.61598-0.11693-0.41474-1.2361-0.41474-1.2361z" fill="#484946" filter="url(#v)"/> <path transform="matrix(1 0 -.26795 1 15.101 198.82)" d="m-591.95-439.82s3.154 6.9217 3.6607 7.843c0.50674 0.92131 7.3378 14.954 7.4356 15.143 0.0979 0.18899 0.0781 0.73233-2e-3 0.87407s-0.71293 0.78417-0.71293 0.78417-1.0426-2.8394-1.327-3.5481c-0.28438-0.70871-9.5332-19.963-9.8205-20.381s-0.45777-0.49278-0.50597-0.73499 1.2721 0.0201 1.2721 0.0201z" fill="#bdbdbd" filter="url(#w)"/> <path transform="matrix(1 0 -.26795 1 15.101 198.82)" d="m-585.79-418.51c-0.0716-0.26727-0.0748-0.21716-0.37358-1.2695-0.29865-1.0524-0.16504-1.0524-0.4195-1.5034-0.25449-0.45102-0.32938-0.66818-0.4332-0.86863s-0.19304-0.28397-0.21361-0.73499c-0.0206-0.45102 0.0151-1.2528-0.13882-1.4533-0.15393-0.20045-0.45911-0.21716-0.52111 0.0501-0.062 0.26727 0.0866 0.63477 0.18951 1.019 0.10294 0.3842 0.28821 0.70158 0.24741 0.98556-0.0409 0.28397-0.1354 0.36749-0.11184 0.51783 0.0236 0.15034 0.49731 0.48443 0.57667 0.71829 0.0793 0.23386-0.23354 0.25056-0.036 0.55124 0.19748 0.30068 0.51639 0.61806 0.56563 0.80181 0.0492 0.18375-0.19773 0.3842-6e-3 0.85192 0.19213 0.46772 0.67417 0.33409 0.67417 0.33409z" fill="#fffdfe" filter="url(#aa)" opacity=".402"/> <path transform="matrix(1 0 -.26795 1 15.101 198.82)" d="m-588.29-424.9c-0.0582-0.21716 0.18429-0.43432-0.0377-0.70159-0.22195-0.26726-0.54654-0.66817-1.022-0.63476-0.47548 0.0334-0.63204 0.3842-0.40562 0.66817 0.22643 0.28398 0.25809 0.65147 0.57667 0.71829 0.31858 0.0668 0.88862-0.0501 0.88862-0.0501z" fill="#fffdfe" filter="url(#z)" opacity=".53"/> <path transform="matrix(1 0 -.26795 1 15.101 198.82)" d="m-576.77-417.89c-0.0316-0.11812-0.93685-8.4336-1.1735-8.788-0.23669-0.35435-0.69063-0.63783-0.47212-0.96856 0.21848-0.33073 1.0643-0.25986 1.169 0.30711 0.10466 0.56696 0.26201 0.44884 0.48819 1.2048 0.2261 0.75596 0.0603 4.016 0.16414 5.1972 0.10391 1.1812 0.51319 2.2679 0.41915 2.6222-0.094 0.35435-0.59478 0.42522-0.59478 0.42522z" fill="#fdfcfc" filter="url(#ae)"/> <path transform="matrix(1 0 -.26795 1 15.101 198.82)" d="m-590.11-430.16c-0.0176 0.18375-0.6565 0.41761-1.492 0.16704-0.83554-0.25056-1.0163-0.55124-1.2567-0.45101-0.24043 0.10022-1.7194 0.0668-1.8909 0.0501-0.17153-0.0167-0.32339-0.33409-0.79886-0.30068-0.47547 0.0334-1.4834-0.0501-1.7421-0.26727-0.25864-0.21716-0.43943-0.51784-0.28374-0.68488s0.63029-0.0167-0.0394-0.33408c-0.6697-0.31739-0.97484-0.33409-0.98413-0.61807-9e-3 -0.28397-0.30131-0.50113 0.20877-0.46772 0.51007 0.0334 1.3811 0.16705 1.7197 0.18375 0.33856 0.0167 1.021-0.11693 1.1985 0.23386 0.17753 0.35079 0.60561 0.70158 9e-3 0.71829-0.59687 0.0167-0.99123-0.0835-0.89636 0.0835 0.0949 0.16704 0.15427 0.45102 0.69449 0.53454 0.5402 0.0835-0.11694 0 1.0482 0.23386 1.1652 0.23386 1.9595 0.51783 1.7185 0.11693-0.24107-0.4009-0.57963-0.41761-0.71237-0.60136-0.13276-0.18374 5.5e-4 -0.43431 0.0316-0.56794 0.031-0.13364 0.38595-0.3675 0.81077 0.0334 0.42481 0.4009 0.3046 0.45101 0.78903 0.45101 0.48442 0 0.36629-0.0668 0.69382 0.0334 0.32753 0.10023 1.3093 0.58465 1.3877 1.0023 0.0785 0.41761-0.21324 0.45102-0.21324 0.45102z" fill="#4d4d4d" filter="url(#y)"/> <path transform="matrix(1 0 -.26795 1 15.101 198.82)" d="m-593.47-433.46s0.35055 0.68488-0.33312 0.75169c-0.68369 0.0668-0.88862 0.0501-0.83675-0.31738 0.0519-0.36749 0.36239-0.51783 0.0149-0.56795-0.34752-0.0501-0.61686 0.0668-0.6422 0.28398-0.0253 0.21715-0.35136 0.43431-0.59448 0.15034-0.24315-0.28398-0.45373-0.3842-0.19334-0.53454s0.36031-0.40091 0.49362-0.65147c0.13331-0.25057 0.37458-0.53454 0.37458-0.53454s-0.40353 0.55124-0.15263 0.80181c0.25089 0.25056 1.1774 0.21716 1.3534 0.25056 0.17601 0.0334 0.51609 0.3675 0.51609 0.3675z" fill="#464646" filter="url(#x)"/> <path d="m-456.6-216.27s-2.0826 2.1955-3.8604 2.9896-5.1302 2.1955-8.0254-0.18685c-2.8953-2.3823-2.3873-3.5968-2.0826-3.8304 0.30478-0.23356 14.832 0.14014 13.968 1.0277z" fill="#f7d32e"/> <path transform="matrix(1 0 -.26795 1 15.101 198.82)" d="m-582.92-415.08s-1.4061 1.8866-2.8552 2.5689c-1.449 0.68237-4.2036 1.8865-7.4097-0.16057-3.2062-2.0471-3.0195-3.0907-2.7936-3.2914 0.22598-0.2007 13.647 0.12042 13.058 0.88306z" fill="#edbd2d" filter="url(#h)"/> </g> </svg>